<svg width="113" height="80" viewBox="0 0 113 80" fill="none" xmlns="http://www.w3.org/2000/svg">
<rect x="34" width="44.2249" height="40.3793" rx="6.47722" fill="#EEEEEE"/>
<path d="M47.7344 30.789H64.2226C64.8473 30.789 65.4464 30.5408 65.8882 30.0991C66.3299 29.6573 66.5781 29.0582 66.5781 28.4335V11.9453C66.5781 11.3206 66.3299 10.7215 65.8882 10.2797C65.4464 9.83801 64.8473 9.58984 64.2226 9.58984H47.7344C47.1097 9.58984 46.5106 9.83801 46.0689 10.2797C45.6271 10.7215 45.379 11.3206 45.379 11.9453V28.4335C45.379 29.0582 45.6271 29.6573 46.0689 30.0991C46.5106 30.5408 47.1097 30.789 47.7344 30.789ZM51.2676 22.5449L54.0506 25.3278L58.334 19.0117L64.2226 27.2558H47.7344L51.2676 22.5449Z" fill="#757575"/>
<path d="M14.0557 46.9014C12.9574 46.9014 12.0892 47.2682 11.4512 48.002C10.8177 48.7311 10.501 49.7314 10.501 51.0029C10.501 52.3109 10.8063 53.3226 11.417 54.0381C12.0322 54.749 12.9072 55.1045 14.042 55.1045C14.7393 55.1045 15.5345 54.9792 16.4277 54.7285V55.7471C15.735 56.0068 14.8805 56.1367 13.8643 56.1367C12.3923 56.1367 11.2552 55.6901 10.4531 54.7969C9.6556 53.9036 9.25684 52.6344 9.25684 50.9893C9.25684 49.9593 9.44824 49.057 9.83105 48.2822C10.2184 47.5075 10.7744 46.9105 11.499 46.4912C12.2282 46.0719 13.085 45.8623 14.0693 45.8623C15.1175 45.8623 16.0335 46.0537 16.8174 46.4365L16.3252 47.4346C15.5687 47.0791 14.8122 46.9014 14.0557 46.9014ZM19.5723 56H18.4375V45.3633H19.5723V56ZM23.1133 56H21.9785V48.5078H23.1133V56ZM21.8828 46.4775C21.8828 46.2178 21.9466 46.0286 22.0742 45.9102C22.2018 45.7871 22.3613 45.7256 22.5527 45.7256C22.735 45.7256 22.8923 45.7871 23.0244 45.9102C23.1566 46.0332 23.2227 46.2223 23.2227 46.4775C23.2227 46.7327 23.1566 46.9242 23.0244 47.0518C22.8923 47.1748 22.735 47.2363 22.5527 47.2363C22.3613 47.2363 22.2018 47.1748 22.0742 47.0518C21.9466 46.9242 21.8828 46.7327 21.8828 46.4775ZM28.5137 56.1367C27.429 56.1367 26.5882 55.804 25.9912 55.1387C25.3988 54.4688 25.1025 53.5231 25.1025 52.3018C25.1025 51.0485 25.4033 50.0801 26.0049 49.3965C26.611 48.7129 27.4723 48.3711 28.5889 48.3711C28.9489 48.3711 29.3089 48.4098 29.6689 48.4873C30.029 48.5648 30.3115 48.6559 30.5166 48.7607L30.168 49.7246C29.9173 49.6243 29.6439 49.5423 29.3477 49.4785C29.0514 49.4102 28.7894 49.376 28.5615 49.376C27.0394 49.376 26.2783 50.3467 26.2783 52.2881C26.2783 53.2087 26.4629 53.915 26.832 54.4072C27.2057 54.8994 27.7572 55.1455 28.4863 55.1455C29.1107 55.1455 29.751 55.0111 30.4072 54.7422V55.7471C29.9059 56.0068 29.2747 56.1367 28.5137 56.1367ZM33.3125 52.165C33.5085 51.887 33.807 51.5225 34.208 51.0713L36.6279 48.5078H37.9746L34.9395 51.7002L38.1865 56H36.8125L34.167 52.459L33.3125 53.1973V56H32.1914V45.3633H33.3125V51.0029C33.3125 51.2536 33.2943 51.641 33.2578 52.165H33.3125ZM45.6035 55.2002C45.804 55.2002 45.9977 55.1865 46.1846 55.1592C46.3714 55.1273 46.5195 55.0954 46.6289 55.0635V55.9316C46.5059 55.9909 46.3236 56.0387 46.082 56.0752C45.8451 56.1162 45.6309 56.1367 45.4395 56.1367C43.9902 56.1367 43.2656 55.3734 43.2656 53.8467V49.3896H42.1924V48.8428L43.2656 48.3711L43.7441 46.7715H44.4004V48.5078H46.5742V49.3896H44.4004V53.7988C44.4004 54.25 44.5075 54.5964 44.7217 54.8379C44.9359 55.0794 45.2298 55.2002 45.6035 55.2002ZM54.5996 52.2471C54.5996 53.4684 54.292 54.4232 53.6768 55.1113C53.0615 55.7949 52.2116 56.1367 51.127 56.1367C50.457 56.1367 49.8623 55.9795 49.3428 55.665C48.8232 55.3506 48.4222 54.8994 48.1396 54.3115C47.8571 53.7236 47.7158 53.0355 47.7158 52.2471C47.7158 51.0257 48.0212 50.0755 48.6318 49.3965C49.2425 48.7129 50.0902 48.3711 51.1748 48.3711C52.223 48.3711 53.0547 48.7197 53.6699 49.417C54.2897 50.1143 54.5996 51.0576 54.5996 52.2471ZM48.8916 52.2471C48.8916 53.2041 49.083 53.9333 49.4658 54.4346C49.8486 54.9359 50.4115 55.1865 51.1543 55.1865C51.8971 55.1865 52.46 54.9382 52.8428 54.4414C53.2301 53.9401 53.4238 53.2087 53.4238 52.2471C53.4238 51.2946 53.2301 50.5723 52.8428 50.0801C52.46 49.5833 51.8926 49.335 51.1406 49.335C50.3978 49.335 49.8372 49.5788 49.459 50.0664C49.0807 50.554 48.8916 51.2809 48.8916 52.2471ZM61.2988 48.5078V53.3682C61.2988 53.9788 61.4378 54.4346 61.7158 54.7354C61.9938 55.0361 62.429 55.1865 63.0215 55.1865C63.8053 55.1865 64.3773 54.9723 64.7373 54.5439C65.1019 54.1156 65.2842 53.416 65.2842 52.4453V48.5078H66.4189V56H65.4824L65.3184 54.9951H65.2568C65.0244 55.3643 64.7008 55.6468 64.2861 55.8428C63.876 56.0387 63.4066 56.1367 62.8779 56.1367C61.9665 56.1367 61.2829 55.9202 60.8271 55.4873C60.376 55.0544 60.1504 54.3617 60.1504 53.4092V48.5078H61.2988ZM72.3184 56.1367C71.8307 56.1367 71.3841 56.0479 70.9785 55.8701C70.5775 55.6878 70.2402 55.4098 69.9668 55.0361H69.8848C69.9395 55.4736 69.9668 55.8883 69.9668 56.2803V59.3633H68.832V48.5078H69.7549L69.9121 49.5332H69.9668C70.2585 49.123 70.598 48.8268 70.9854 48.6445C71.3727 48.4622 71.8171 48.3711 72.3184 48.3711C73.3118 48.3711 74.0775 48.7106 74.6152 49.3896C75.1576 50.0687 75.4287 51.0212 75.4287 52.2471C75.4287 53.4775 75.153 54.4346 74.6016 55.1182C74.0547 55.7972 73.2936 56.1367 72.3184 56.1367ZM72.1543 49.335C71.3887 49.335 70.835 49.5469 70.4932 49.9707C70.1514 50.3945 69.9759 51.069 69.9668 51.9941V52.2471C69.9668 53.2998 70.1423 54.054 70.4932 54.5098C70.8441 54.9609 71.4069 55.1865 72.1816 55.1865C72.8288 55.1865 73.3346 54.9245 73.6992 54.4004C74.0684 53.8763 74.2529 53.154 74.2529 52.2334C74.2529 51.2992 74.0684 50.5837 73.6992 50.0869C73.3346 49.5856 72.8197 49.335 72.1543 49.335ZM78.5527 56H77.418V45.3633H78.5527V56ZM87.4258 52.2471C87.4258 53.4684 87.1182 54.4232 86.5029 55.1113C85.8877 55.7949 85.0378 56.1367 83.9531 56.1367C83.2832 56.1367 82.6885 55.9795 82.1689 55.665C81.6494 55.3506 81.2484 54.8994 80.9658 54.3115C80.6833 53.7236 80.542 53.0355 80.542 52.2471C80.542 51.0257 80.8473 50.0755 81.458 49.3965C82.0687 48.7129 82.9163 48.3711 84.001 48.3711C85.0492 48.3711 85.8809 48.7197 86.4961 49.417C87.1159 50.1143 87.4258 51.0576 87.4258 52.2471ZM81.7178 52.2471C81.7178 53.2041 81.9092 53.9333 82.292 54.4346C82.6748 54.9359 83.2376 55.1865 83.9805 55.1865C84.7233 55.1865 85.2861 54.9382 85.6689 54.4414C86.0563 53.9401 86.25 53.2087 86.25 52.2471C86.25 51.2946 86.0563 50.5723 85.6689 50.0801C85.2861 49.5833 84.7188 49.335 83.9668 49.335C83.224 49.335 82.6634 49.5788 82.2852 50.0664C81.9069 50.554 81.7178 51.2809 81.7178 52.2471ZM94.0293 56L93.8037 54.9336H93.749C93.3753 55.403 93.0016 55.722 92.6279 55.8906C92.2588 56.0547 91.7962 56.1367 91.2402 56.1367C90.4974 56.1367 89.9141 55.9453 89.4902 55.5625C89.071 55.1797 88.8613 54.6351 88.8613 53.9287C88.8613 52.4157 90.0713 51.6227 92.4912 51.5498L93.7627 51.5088V51.0439C93.7627 50.4561 93.6351 50.0231 93.3799 49.7451C93.1292 49.4626 92.7259 49.3213 92.1699 49.3213C91.5456 49.3213 90.8392 49.5127 90.0508 49.8955L89.7021 49.0273C90.0713 48.8268 90.4746 48.6696 90.9121 48.5557C91.3542 48.4417 91.7962 48.3848 92.2383 48.3848C93.1315 48.3848 93.7923 48.583 94.2207 48.9795C94.6536 49.376 94.8701 50.0117 94.8701 50.8867V56H94.0293ZM91.4658 55.2002C92.1722 55.2002 92.7259 55.0065 93.127 54.6191C93.5326 54.2318 93.7354 53.6895 93.7354 52.9922V52.3154L92.6006 52.3633C91.6982 52.3952 91.0465 52.5365 90.6455 52.7871C90.249 53.0332 90.0508 53.4183 90.0508 53.9424C90.0508 54.3525 90.1738 54.6647 90.4199 54.8789C90.6706 55.0931 91.0192 55.2002 91.4658 55.2002ZM102.314 54.9951H102.253C101.729 55.7562 100.945 56.1367 99.9014 56.1367C98.9215 56.1367 98.1582 55.8018 97.6113 55.1318C97.069 54.4619 96.7979 53.5094 96.7979 52.2744C96.7979 51.0394 97.0713 50.0801 97.6182 49.3965C98.165 48.7129 98.9261 48.3711 99.9014 48.3711C100.918 48.3711 101.697 48.7402 102.239 49.4785H102.328L102.28 48.9385L102.253 48.4121V45.3633H103.388V56H102.465L102.314 54.9951ZM100.045 55.1865C100.82 55.1865 101.38 54.9769 101.727 54.5576C102.077 54.1338 102.253 53.4525 102.253 52.5137V52.2744C102.253 51.2126 102.075 50.4561 101.72 50.0049C101.369 49.5492 100.806 49.3213 100.031 49.3213C99.3659 49.3213 98.8555 49.5811 98.5 50.1006C98.1491 50.6156 97.9736 51.3447 97.9736 52.2881C97.9736 53.2451 98.1491 53.9674 98.5 54.4551C98.8509 54.9427 99.3659 55.1865 100.045 55.1865ZM31.8906 75L31.665 73.9336H31.6104C31.2367 74.403 30.863 74.722 30.4893 74.8906C30.1201 75.0547 29.6576 75.1367 29.1016 75.1367C28.3587 75.1367 27.7754 74.9453 27.3516 74.5625C26.9323 74.1797 26.7227 73.6351 26.7227 72.9287C26.7227 71.4157 27.9326 70.6227 30.3525 70.5498L31.624 70.5088V70.0439C31.624 69.4561 31.4964 69.0231 31.2412 68.7451C30.9906 68.4626 30.5872 68.3213 30.0312 68.3213C29.4069 68.3213 28.7005 68.5127 27.9121 68.8955L27.5635 68.0273C27.9326 67.8268 28.3359 67.6696 28.7734 67.5557C29.2155 67.4417 29.6576 67.3848 30.0996 67.3848C30.9928 67.3848 31.6536 67.583 32.082 67.9795C32.515 68.376 32.7314 69.0117 32.7314 69.8867V75H31.8906ZM29.3271 74.2002C30.0335 74.2002 30.5872 74.0065 30.9883 73.6191C31.3939 73.2318 31.5967 72.6895 31.5967 71.9922V71.3154L30.4619 71.3633C29.5596 71.3952 28.9079 71.5365 28.5068 71.7871C28.1104 72.0332 27.9121 72.4183 27.9121 72.9424C27.9121 73.3525 28.0352 73.6647 28.2812 73.8789C28.5319 74.0931 28.8805 74.2002 29.3271 74.2002ZM40.2031 75V70.1533C40.2031 69.5426 40.0641 69.0869 39.7861 68.7861C39.5081 68.4854 39.0729 68.335 38.4805 68.335C37.6966 68.335 37.1224 68.5469 36.7578 68.9707C36.3932 69.3945 36.2109 70.0941 36.2109 71.0693V75H35.0762V67.5078H35.999L36.1836 68.5332H36.2383C36.4707 68.1641 36.7965 67.8792 37.2158 67.6787C37.6351 67.4736 38.1022 67.3711 38.6172 67.3711C39.5195 67.3711 40.1986 67.5898 40.6543 68.0273C41.11 68.4603 41.3379 69.1553 41.3379 70.1123V75H40.2031ZM48.4473 75H47.3125V67.5078H48.4473V75ZM47.2168 65.4775C47.2168 65.2178 47.2806 65.0286 47.4082 64.9102C47.5358 64.7871 47.6953 64.7256 47.8867 64.7256C48.069 64.7256 48.2262 64.7871 48.3584 64.9102C48.4906 65.0332 48.5566 65.2223 48.5566 65.4775C48.5566 65.7327 48.4906 65.9242 48.3584 66.0518C48.2262 66.1748 48.069 66.2363 47.8867 66.2363C47.6953 66.2363 47.5358 66.1748 47.4082 66.0518C47.2806 65.9242 47.2168 65.7327 47.2168 65.4775ZM60.4033 75V70.126C60.4033 69.529 60.2757 69.0824 60.0205 68.7861C59.7653 68.4854 59.3688 68.335 58.8311 68.335C58.1247 68.335 57.6029 68.5378 57.2656 68.9434C56.9284 69.349 56.7598 69.9733 56.7598 70.8164V75H55.625V70.126C55.625 69.529 55.4974 69.0824 55.2422 68.7861C54.987 68.4854 54.5882 68.335 54.0459 68.335C53.335 68.335 52.8132 68.5492 52.4805 68.9775C52.1523 69.4014 51.9883 70.0986 51.9883 71.0693V75H50.8535V67.5078H51.7764L51.9609 68.5332H52.0156C52.2298 68.1686 52.5306 67.8838 52.918 67.6787C53.3099 67.4736 53.7474 67.3711 54.2305 67.3711C55.4017 67.3711 56.1673 67.7949 56.5273 68.6426H56.582C56.8053 68.2507 57.1289 67.9408 57.5527 67.7129C57.9766 67.485 58.4596 67.3711 59.002 67.3711C59.8496 67.3711 60.4831 67.5898 60.9023 68.0273C61.3262 68.4603 61.5381 69.1553 61.5381 70.1123V75H60.4033ZM68.4902 75L68.2646 73.9336H68.21C67.8363 74.403 67.4626 74.722 67.0889 74.8906C66.7197 75.0547 66.2572 75.1367 65.7012 75.1367C64.9583 75.1367 64.375 74.9453 63.9512 74.5625C63.5319 74.1797 63.3223 73.6351 63.3223 72.9287C63.3223 71.4157 64.5322 70.6227 66.9521 70.5498L68.2236 70.5088V70.0439C68.2236 69.4561 68.096 69.0231 67.8408 68.7451C67.5902 68.4626 67.1868 68.3213 66.6309 68.3213C66.0065 68.3213 65.3001 68.5127 64.5117 68.8955L64.1631 68.0273C64.5322 67.8268 64.9355 67.6696 65.373 67.5557C65.8151 67.4417 66.2572 67.3848 66.6992 67.3848C67.5924 67.3848 68.2533 67.583 68.6816 67.9795C69.1146 68.376 69.3311 69.0117 69.3311 69.8867V75H68.4902ZM65.9268 74.2002C66.6331 74.2002 67.1868 74.0065 67.5879 73.6191C67.9935 73.2318 68.1963 72.6895 68.1963 71.9922V71.3154L67.0615 71.3633C66.1592 71.3952 65.5075 71.5365 65.1064 71.7871C64.71 72.0332 64.5117 72.4183 64.5117 72.9424C64.5117 73.3525 64.6348 73.6647 64.8809 73.8789C65.1315 74.0931 65.4801 74.2002 65.9268 74.2002ZM74.4922 74.1865C75.2669 74.1865 75.8252 73.9792 76.167 73.5645C76.5133 73.1452 76.6956 72.4753 76.7139 71.5547V71.2607C76.7139 70.2308 76.5339 69.4834 76.1738 69.0186C75.8138 68.5537 75.2441 68.3213 74.4648 68.3213C73.8086 68.3213 73.305 68.5765 72.9541 69.0869C72.6077 69.5973 72.4346 70.3265 72.4346 71.2744C72.4346 72.2269 72.6055 72.9515 72.9473 73.4482C73.2936 73.9404 73.8086 74.1865 74.4922 74.1865ZM76.7139 74.918C76.7139 74.7539 76.7344 74.4463 76.7754 73.9951H76.7002C76.1898 74.7562 75.4105 75.1367 74.3623 75.1367C73.3734 75.1367 72.6055 74.7949 72.0586 74.1113C71.5163 73.4232 71.2451 72.473 71.2451 71.2607C71.2451 70.0576 71.5208 69.1097 72.0723 68.417C72.6283 67.7197 73.387 67.3711 74.3486 67.3711C75.3649 67.3711 76.1533 67.7493 76.7139 68.5059H76.7891L76.9531 67.5078H77.8486V75.1367C77.8486 76.2122 77.5798 77.0189 77.042 77.5566C76.5042 78.0944 75.668 78.3633 74.5332 78.3633C73.4303 78.3633 72.5394 78.2038 71.8604 77.8848V76.8047C72.2021 76.9961 72.6123 77.1442 73.0908 77.249C73.5693 77.3538 74.0775 77.4062 74.6152 77.4062C75.2624 77.4062 75.7728 77.2126 76.1465 76.8252C76.5247 76.4424 76.7139 75.9183 76.7139 75.2529V74.918ZM83.4268 75.1367C82.3193 75.1367 81.4443 74.7995 80.8018 74.125C80.1637 73.4505 79.8447 72.514 79.8447 71.3154C79.8447 70.1077 80.141 69.1484 80.7334 68.4375C81.3304 67.7266 82.1302 67.3711 83.1328 67.3711C84.0716 67.3711 84.8145 67.681 85.3613 68.3008C85.9082 68.916 86.1816 69.7295 86.1816 70.7412V71.459H81.0205C81.0433 72.3385 81.2643 73.0062 81.6836 73.4619C82.1074 73.9176 82.7021 74.1455 83.4678 74.1455C84.2744 74.1455 85.0719 73.9769 85.8604 73.6396V74.6514C85.4593 74.8245 85.0788 74.9476 84.7188 75.0205C84.3633 75.098 83.9326 75.1367 83.4268 75.1367ZM83.1191 68.3213C82.5176 68.3213 82.0368 68.5173 81.6768 68.9092C81.3213 69.3011 81.1117 69.8434 81.0479 70.5361H84.9648C84.9648 69.8206 84.8053 69.2738 84.4863 68.8955C84.1673 68.5127 83.7116 68.3213 83.1191 68.3213Z" fill="#757575"/>
</svg>
